Coordinates
version=1
nRows=4
nColumns=63
inDegrees=yes

Units are S.I. units (second, meters, Newtons, ...)
If the header above contains a line with 'inDegrees', this indicates whether rotational values are in degrees (yes) or radians (no).

endheader
time	pelvis_tilt	pelvis_list	pelvis_rotation	pelvis_tx	pelvis_ty	pelvis_tz	hip_flexion_r	hip_adduction_r	hip_rotation_r	knee_angle_r	knee_angle_r_beta	ankle_angle_r	subtalar_angle_r	mtp_angle_r	hip_flexion_l	hip_adduction_l	hip_rotation_l	knee_angle_l	knee_angle_l_beta	ankle_angle_l	subtalar_angle_l	mtp_angle_l	L5_S1_Flex_Ext	L5_S1_Lat_Bending	L5_S1_axial_rotation	L4_L5_Flex_Ext	L4_L5_Lat_Bending	L4_L5_axial_rotation	L3_L4_Flex_Ext	L3_L4_Lat_Bending	L3_L4_axial_rotation	L2_L3_Flex_Ext	L2_L3_Lat_Bending	L2_L3_axial_rotation	L1_L2_Flex_Ext	L1_L2_Lat_Bending	L1_L2_axial_rotation	L1_T12_Flex_Ext	L1_T12_Lat_Bending	L1_T12_axial_rotation	Abs_r3	Abs_r2	Abs_r1	Abs_t1	Abs_t2	neck_flexion	neck_bending	neck_rotation	arm_flex_r	arm_add_r	arm_rot_r	elbow_flex_r	pro_sup_r	wrist_flex_r	wrist_dev_r	arm_flex_l	arm_add_l	arm_rot_l	elbow_flex_l	pro_sup_l	wrist_flex_l	wrist_dev_l
      0.00800000	    -53.72849035	     -1.71940255	     -2.30125540	     -0.26474205	      1.01833988	      0.01544144	    123.13151862	     -1.55686211	      1.88258686	     96.18396389	      1.67872686	     18.99792040	     -2.58616534	      0.00000000	     93.80025973	     -7.46357735	      2.27545543	     76.01016767	      1.32662769	      5.06028516	      0.93565636	      0.00000000	     -0.07717867	      0.40213067	      0.30571831	     -0.14332851	      0.53483379	      0.32482571	     -0.12679684	      0.97774051	      0.32482571	     -0.08820750	      0.97774051	      0.26750352	     -0.07166811	      0.82002486	      0.24839613	     -0.04409989	      0.62290041	      0.22928873	     -0.55127954	      4.54898256	      1.70031353	      0.00000000	      0.00000000	     -0.00000000	      0.00000000	      0.00000000	     82.37737522	    -10.30128779	     40.48798610	     17.99043108	     35.39501847	      0.00000000	      5.52847279	     73.27206101	    -15.72943525	     23.62311272	     31.98255407	     44.91535906	      0.00000000	      5.52847279
      0.01700000	    -53.69746446	     -1.31405532	     -1.21470460	     -0.26512881	      1.01798041	      0.01467147	    120.99763757	     -2.02764685	      3.19319381	     91.46932183	      1.59644083	     19.03103513	     -1.84109273	      0.00000000	     95.03713380	     -6.24660722	      2.60402243	     80.55023865	      1.40586688	      6.33411789	      0.02489806	      0.00000000	     -0.07756934	      0.34180447	      0.11506687	     -0.14405403	      0.45459994	      0.12225855	     -0.12743868	      0.83106338	      0.12225855	     -0.08865400	      0.83106338	      0.10068352	     -0.07203089	      0.69700767	      0.09349184	     -0.04432312	      0.52945512	      0.08630016	     -0.55407007	      3.86656048	      0.63996744	      0.00000000	      0.00000000	     -0.00000000	      0.00000000	      0.00000000	     82.26458501	    -10.31356133	     40.52604005	     18.56670247	     35.36789029	      0.00000000	      5.52184287	     73.79907865	    -15.56294585	     23.72623926	     31.31936027	     44.94877115	      0.00000000	      5.52184287
      0.02500000	    -53.76319699	     -1.37065341	     -1.07770530	     -0.26516637	      1.01817167	      0.01454421	    120.16956129	     -2.22553514	      3.18034117	     89.69364159	      1.56544936	     19.23042255	     -1.04884478	      0.00000000	     95.65445493	     -6.02813785	      2.85594483	     82.10014046	      1.43291777	      6.56693633	     -0.36266821	      0.00000000	     -0.07734176	      0.34289734	      0.09044008	     -0.14363138	      0.45605346	      0.09609259	     -0.12706478	      0.83372059	      0.09609259	     -0.08839390	      0.83372059	      0.07913507	     -0.07181956	      0.69923625	      0.07348257	     -0.04419308	      0.53114798	      0.06783006	     -0.55244446	      3.87892326	      0.50300060	      0.00000000	      0.00000000	     -0.00000000	      0.00000000	      0.00000000	     82.20624778	    -10.41996591	     40.35969789	     18.87353959	     35.57768401	      0.00000000	      5.48471830	     73.89343069	    -15.50848852	     23.91758499	     31.25487927	     44.99858347	      0.00000000	      5.48471830
      0.03300000	    -53.81847015	     -1.25139852	     -0.66221825	     -0.26505579	      1.01826364	      0.01418530	    119.32531682	     -2.53153525	      3.45795804	     87.88752396	      1.53392666	     18.95116292	     -0.86831312	      0.00000000	     96.31645949	     -5.46749732	      3.03065712	     83.87293363	      1.46385885	      7.01575585	     -0.49556978	      0.00000000	     -0.07655858	      0.31904209	      0.00624110	     -0.14217694	      0.42432598	      0.00663117	     -0.12577809	      0.77571894	      0.00663117	     -0.08749880	      0.77571894	      0.00546097	     -0.07109230	      0.65059063	      0.00507090	     -0.04374557	      0.49419620	      0.00468083	     -0.54685029	      3.60906794	      0.03471115	      0.00000000	      0.00000000	     -0.00000000	      0.00000000	      0.00000000	     82.01926786	    -10.56840646	     40.27276078	     19.48551110	     35.86156241	      0.00000000	      5.45635414	     73.83211973	    -15.62928970	     23.94476481	     31.68515636	     45.00599043	      0.00000000	      5.45635414
